<?xml version="1.0" encoding="UTF-8" standalone="no"?>
<!DOCTYPE svg PUBLIC "-//W3C//DTD SVG 1.1//EN" "http://www.w3.org/Graphics/SVG/1.1/DTD/svg11.dtd">
<svg width="100%" height="100%" viewBox="0 0 2000 2000" version="1.1" xmlns="http://www.w3.org/2000/svg" xmlns:xlink="http://www.w3.org/1999/xlink" xml:space="preserve" xmlns:serif="http://www.serif.com/" style="fill-rule:evenodd;clip-rule:evenodd;stroke-linejoin:round;stroke-miterlimit:2;">
    <g transform="matrix(1,0,0,1,-16171,-5055)">
        <g id="Icon_White" transform="matrix(4,0,0,3.33333,-41906.3,5055)">
            <rect x="14519.3" y="0" width="500" height="600" style="fill:none;"/>
            <g id="icon" transform="matrix(2.04174,0,0,2.45009,-9982.9,-732.043)">
                <path d="M12040.5,432.099C12038.4,431.619 12036.6,430.819 12035.1,429.7C12032.5,427.741 12031.3,424.916 12031.3,421.226C12031.3,417.536 12032.5,414.712 12035.1,412.753C12036.6,411.633 12038.4,410.834 12040.5,410.354C12038.6,409.334 12037,408.095 12035.9,406.635C12033.9,404.081 12033.4,401.022 12034.4,397.458C12035.3,393.894 12037.3,391.496 12040.3,390.266C12042,389.562 12043.9,389.257 12046.1,389.35C12044.5,387.86 12043.4,386.265 12042.6,384.565C12041.4,381.59 12041.7,378.505 12043.6,375.31C12045.4,372.114 12047.9,370.307 12051.1,369.888C12052.9,369.649 12054.9,369.859 12057,370.519C12055.8,368.659 12055.1,366.817 12054.9,364.993C12054.5,361.8 12055.5,358.9 12058.2,356.29C12060.8,353.681 12063.7,352.588 12066.9,353.01C12068.7,353.251 12070.5,353.962 12072.4,355.143C12071.7,353.041 12071.5,351.078 12071.8,349.253C12072.2,346.06 12074,343.541 12077.2,341.696C12080.4,339.851 12083.5,339.546 12086.4,340.78C12088.1,341.485 12089.7,342.648 12091.2,344.271C12091.1,342.07 12091.4,340.119 12092.1,338.418C12093.4,335.443 12095.8,333.477 12099.3,332.522C12102.9,331.567 12105.9,332.07 12108.5,334.032C12110,335.153 12111.2,336.69 12112.2,338.643C12112.7,336.493 12113.5,334.687 12114.6,333.226C12116.6,330.671 12119.4,329.393 12123.1,329.393C12126.8,329.393 12129.6,330.671 12131.6,333.226C12132.7,334.687 12133.5,336.493 12134,338.643C12135,336.69 12136.2,335.153 12137.7,334.032C12140.2,332.07 12143.3,331.567 12146.9,332.522C12150.4,333.477 12152.8,335.443 12154.1,338.418C12154.8,340.119 12155.1,342.07 12155,344.271C12156.5,342.648 12158.1,341.485 12159.8,340.78C12162.7,339.546 12165.8,339.851 12169,341.696C12172.2,343.541 12174,346.06 12174.4,349.253C12174.7,351.078 12174.5,353.041 12173.8,355.143C12175.7,353.962 12177.5,353.251 12179.3,353.01C12182.5,352.588 12185.4,353.681 12188,356.29C12190.6,358.9 12191.7,361.8 12191.3,364.993C12191.1,366.817 12190.4,368.659 12189.2,370.519C12191.3,369.859 12193.2,369.649 12195.1,369.888C12198.3,370.307 12200.8,372.114 12202.6,375.31C12204.5,378.505 12204.8,381.59 12203.5,384.565C12202.8,386.265 12201.7,387.86 12200,389.35C12202.2,389.257 12204.2,389.562 12205.9,390.266C12208.9,391.496 12210.8,393.894 12211.8,397.458C12212.8,401.022 12212.2,404.081 12210.3,406.635C12209.2,408.095 12207.6,409.334 12205.7,410.354C12207.8,410.834 12209.6,411.633 12211.1,412.753C12213.6,414.712 12214.9,417.536 12214.9,421.226C12214.9,424.916 12213.6,427.741 12211.1,429.7C12209.6,430.819 12207.8,431.619 12205.7,432.099C12207.6,433.119 12209.2,434.358 12210.3,435.818C12212.2,438.371 12212.8,441.43 12211.8,444.995C12210.8,448.559 12208.9,450.956 12205.9,452.187C12204.2,452.891 12202.2,453.196 12200,453.102C12201.7,454.593 12202.8,456.188 12203.5,457.888C12204.8,460.863 12204.5,463.947 12202.6,467.143C12200.8,470.339 12198.3,472.146 12195.1,472.565C12193.2,472.804 12191.3,472.594 12189.2,471.934C12190.4,473.794 12191.1,475.636 12191.3,477.46C12191.7,480.652 12190.6,483.553 12188,486.162C12185.4,488.772 12182.5,489.865 12179.3,489.443C12177.5,489.202 12175.7,488.491 12173.8,487.31C12174.5,489.412 12174.7,491.375 12174.4,493.2C12174,496.393 12172.2,498.911 12169,500.756C12165.8,502.601 12162.7,502.907 12159.8,501.673C12158.1,500.968 12156.5,499.804 12155,498.182C12155.1,500.383 12154.8,502.334 12154.1,504.035C12152.8,507.01 12150.4,508.976 12146.9,509.931C12143.3,510.886 12140.2,510.382 12137.7,508.421C12136.2,507.3 12135,505.763 12134,503.81C12133.5,505.96 12132.7,507.766 12131.6,509.226C12129.6,511.782 12126.8,513.06 12123.1,513.06C12119.4,513.06 12116.6,511.782 12114.6,509.226C12113.5,507.766 12112.7,505.96 12112.2,503.81C12111.2,505.763 12110,507.3 12108.5,508.421C12105.9,510.382 12102.9,510.886 12099.3,509.931C12095.8,508.976 12093.4,507.01 12092.1,504.035C12091.4,502.334 12091.1,500.383 12091.2,498.182C12089.7,499.804 12088.1,500.968 12086.4,501.673C12083.5,502.907 12080.4,502.601 12077.2,500.756C12074,498.911 12072.2,496.393 12071.8,493.2C12071.5,491.375 12071.7,489.412 12072.4,487.31C12070.5,488.491 12068.7,489.202 12066.9,489.443C12063.7,489.865 12060.8,488.772 12058.2,486.162C12055.5,483.553 12054.5,480.652 12054.9,477.46C12055.1,475.636 12055.8,473.794 12057,471.934C12054.9,472.594 12052.9,472.804 12051.1,472.565C12047.9,472.146 12045.4,470.339 12043.6,467.143C12041.7,463.947 12041.4,460.863 12042.6,457.888C12043.4,456.188 12044.5,454.593 12046.1,453.102C12043.9,453.196 12042,452.891 12040.3,452.187C12037.3,450.956 12035.3,448.559 12034.4,444.995C12033.4,441.43 12033.9,438.371 12035.9,435.818C12037,434.358 12038.6,433.119 12040.5,432.099ZM12074.3,388.539L12057.7,378.978C12054.4,377.062 12052.1,377.228 12050.8,379.476C12049.5,381.725 12050.5,383.808 12053.8,385.725L12070.4,395.286C12070.4,395.286 12080.9,398.1 12084,398.944C12084.1,398.973 12084.2,398.926 12084.3,398.83C12084.4,398.734 12084.3,398.613 12084.3,398.535C12082,396.228 12074.3,388.539 12074.3,388.539ZM12064.5,417.331L12045.3,417.331C12041.5,417.331 12039.6,418.63 12039.6,421.226C12039.6,423.823 12041.5,425.121 12045.3,425.121L12064.5,425.121C12064.5,425.121 12075,422.307 12078.1,421.463C12078.2,421.434 12078.3,421.337 12078.3,421.226C12078.3,421.116 12078.2,421.019 12078.1,420.99C12075,420.146 12064.5,417.331 12064.5,417.331ZM12067.5,402.29L12049,397.341C12045.3,396.349 12043.1,397.107 12042.4,399.615C12041.8,402.123 12043.3,403.873 12047,404.866L12065.5,409.815L12079.6,409.815C12079.7,409.815 12079.8,409.74 12079.8,409.633C12079.9,409.526 12079.8,409.413 12079.7,409.358C12076.9,407.727 12067.5,402.29 12067.5,402.29ZM12127,362.599L12127,343.476C12127,339.643 12125.7,337.726 12123.1,337.726C12120.5,337.726 12119.2,339.643 12119.2,343.476L12119.2,362.599C12119.2,362.599 12122,373.102 12122.9,376.252C12122.9,376.359 12123,376.434 12123.1,376.434C12123.2,376.434 12123.3,376.359 12123.3,376.252C12124.2,373.102 12127,362.599 12127,362.599ZM12142,365.605L12147,347.134C12148,343.431 12147.2,341.244 12144.7,340.572C12142.2,339.9 12140.4,341.415 12139.5,345.118L12134.5,363.588L12134.5,377.724C12134.5,377.834 12134.6,377.931 12134.7,377.96C12134.8,377.989 12134.9,377.942 12135,377.846C12136.6,375.021 12142,365.605 12142,365.605ZM12155.8,372.401L12165.3,355.84C12167.3,352.521 12167.1,350.212 12164.8,348.913C12162.6,347.615 12160.5,348.626 12158.6,351.945L12149,368.506C12149,368.506 12146.2,379.009 12145.4,382.159C12145.3,382.267 12145.4,382.38 12145.5,382.435C12145.6,382.49 12145.7,382.474 12145.8,382.396C12148.1,380.09 12155.8,372.401 12155.8,372.401ZM12090.4,470.052L12080.8,486.612C12078.9,489.932 12079.1,492.241 12081.3,493.54C12083.6,494.838 12085.7,493.827 12087.6,490.507L12097.2,473.947C12097.2,473.947 12100,463.444 12100.8,460.293C12100.8,460.186 12100.8,460.073 12100.7,460.018C12100.6,459.963 12100.5,459.979 12100.4,460.057C12098.1,462.363 12090.4,470.052 12090.4,470.052ZM12078.9,459.928L12065.4,473.45C12062.6,476.16 12062.2,478.434 12064,480.27C12065.9,482.106 12068.2,481.669 12070.9,478.958L12084.4,465.437C12084.4,465.437 12089.8,456.02 12091.5,453.195C12091.5,453.099 12091.5,452.978 12091.4,452.9C12091.3,452.821 12091.2,452.805 12091.1,452.861C12088.3,454.491 12078.9,459.928 12078.9,459.928ZM12070.4,447.167L12053.8,456.728C12050.5,458.645 12049.5,460.728 12050.8,462.976C12052.1,465.225 12054.4,465.391 12057.7,463.475L12074.3,453.913C12074.3,453.913 12082,446.225 12084.3,443.918C12084.3,443.84 12084.4,443.719 12084.3,443.623C12084.2,443.527 12084.1,443.48 12084,443.509C12080.9,444.353 12070.4,447.167 12070.4,447.167ZM12065.5,432.638L12047,437.587C12043.3,438.579 12041.8,440.33 12042.4,442.838C12043.1,445.346 12045.3,446.104 12049,445.112L12067.5,440.163C12067.5,440.163 12076.9,434.726 12079.7,433.095C12079.8,433.04 12079.9,432.927 12079.8,432.82C12079.8,432.713 12079.7,432.638 12079.6,432.638L12065.5,432.638ZM12084.4,377.016L12070.9,363.495C12068.2,360.784 12065.9,360.347 12064,362.183C12062.2,364.019 12062.6,366.293 12065.4,369.003L12078.9,382.525C12078.9,382.525 12088.3,387.961 12091.1,389.592C12091.2,389.648 12091.3,389.632 12091.4,389.553C12091.5,389.475 12091.5,389.354 12091.5,389.258C12089.8,386.433 12084.4,377.016 12084.4,377.016ZM12097.2,368.506L12087.6,351.945C12085.7,348.626 12083.6,347.615 12081.3,348.913C12079.1,350.212 12078.9,352.521 12080.8,355.84L12090.4,372.401C12090.4,372.401 12098.1,380.09 12100.4,382.396C12100.5,382.474 12100.6,382.49 12100.7,382.435C12100.8,382.38 12100.8,382.267 12100.8,382.159C12100,379.009 12097.2,368.506 12097.2,368.506ZM12111.7,363.588L12106.7,345.118C12105.7,341.415 12104,339.9 12101.5,340.572C12099,341.244 12098.2,343.431 12099.2,347.134L12104.2,365.605C12104.2,365.605 12109.6,375.021 12111.2,377.846C12111.3,377.942 12111.4,377.989 12111.5,377.96C12111.6,377.931 12111.7,377.834 12111.7,377.724L12111.7,363.588ZM12161.8,465.437L12175.3,478.958C12178,481.669 12180.3,482.106 12182.1,480.27C12184,478.434 12183.5,476.16 12180.8,473.45L12167.3,459.928C12167.3,459.928 12157.9,454.491 12155.1,452.861C12155,452.805 12154.8,452.821 12154.8,452.9C12154.7,452.978 12154.7,453.099 12154.7,453.195C12156.4,456.02 12161.8,465.437 12161.8,465.437ZM12149,473.947L12158.6,490.507C12160.5,493.827 12162.6,494.838 12164.8,493.54C12167.1,492.241 12167.3,489.932 12165.3,486.612L12155.8,470.052C12155.8,470.052 12148.1,462.363 12145.8,460.057C12145.7,459.979 12145.6,459.963 12145.5,460.018C12145.4,460.073 12145.3,460.186 12145.4,460.293C12146.2,463.444 12149,473.947 12149,473.947ZM12134.5,478.864L12139.5,497.335C12140.4,501.038 12142.2,502.553 12144.7,501.881C12147.2,501.209 12148,499.022 12147,495.319L12142,476.848C12142,476.848 12136.6,467.431 12135,464.607C12134.9,464.511 12134.8,464.464 12134.7,464.493C12134.6,464.521 12134.5,464.618 12134.5,464.729L12134.5,478.864ZM12119.2,479.854L12119.2,498.976C12119.2,502.81 12120.5,504.726 12123.1,504.726C12125.7,504.726 12127,502.81 12127,498.976L12127,479.854C12127,479.854 12124.2,469.351 12123.3,466.201C12123.3,466.093 12123.2,466.019 12123.1,466.019C12123,466.019 12122.9,466.093 12122.9,466.201C12122,469.351 12119.2,479.854 12119.2,479.854ZM12104.2,476.848L12099.2,495.319C12098.2,499.022 12099,501.209 12101.5,501.881C12104,502.553 12105.7,501.038 12106.7,497.335L12111.7,478.864L12111.7,464.729C12111.7,464.618 12111.6,464.521 12111.5,464.493C12111.4,464.464 12111.3,464.511 12111.2,464.607C12109.6,467.431 12104.2,476.848 12104.2,476.848ZM12167.3,382.525L12180.8,369.003C12183.5,366.293 12184,364.019 12182.1,362.183C12180.3,360.347 12178,360.784 12175.3,363.495L12161.8,377.016C12161.8,377.016 12156.4,386.433 12154.7,389.258C12154.7,389.354 12154.7,389.475 12154.8,389.553C12154.8,389.632 12155,389.648 12155.1,389.592C12157.9,387.961 12167.3,382.525 12167.3,382.525ZM12175.8,395.286L12192.4,385.725C12195.7,383.808 12196.7,381.725 12195.4,379.476C12194.1,377.228 12191.8,377.062 12188.5,378.978L12171.9,388.539C12171.9,388.539 12164.2,396.228 12161.9,398.535C12161.8,398.613 12161.8,398.734 12161.9,398.83C12161.9,398.926 12162.1,398.973 12162.2,398.944C12165.3,398.1 12175.8,395.286 12175.8,395.286ZM12180.7,409.815L12199.2,404.866C12202.9,403.873 12204.4,402.123 12203.7,399.615C12203.1,397.107 12200.9,396.349 12197.2,397.341L12178.7,402.29C12178.7,402.29 12169.3,407.727 12166.5,409.358C12166.4,409.413 12166.3,409.526 12166.4,409.633C12166.4,409.74 12166.5,409.815 12166.6,409.815L12180.7,409.815ZM12181.7,425.121L12200.8,425.121C12204.7,425.121 12206.6,423.823 12206.6,421.226C12206.6,418.63 12204.7,417.331 12200.8,417.331L12181.7,417.331C12181.7,417.331 12171.2,420.146 12168.1,420.99C12168,421.019 12167.9,421.116 12167.9,421.226C12167.9,421.337 12168,421.434 12168.1,421.463C12171.2,422.307 12181.7,425.121 12181.7,425.121ZM12178.7,440.163L12197.2,445.112C12200.9,446.104 12203.1,445.346 12203.7,442.838C12204.4,440.33 12202.9,438.579 12199.2,437.587L12180.7,432.638L12166.6,432.638C12166.5,432.638 12166.4,432.713 12166.4,432.82C12166.3,432.927 12166.4,433.04 12166.5,433.095C12169.3,434.726 12178.7,440.163 12178.7,440.163ZM12171.9,453.913L12188.5,463.475C12191.8,465.391 12194.1,465.225 12195.4,462.976C12196.7,460.728 12195.7,458.645 12192.4,456.728L12175.8,447.167C12175.8,447.167 12165.3,444.353 12162.2,443.509C12162.1,443.48 12161.9,443.527 12161.9,443.623C12161.8,443.719 12161.8,443.84 12161.9,443.918C12164.2,446.225 12171.9,453.913 12171.9,453.913Z" style="fill:white;"/>
            </g>
        </g>
    </g>
</svg>
